<?xml version="1.0" standalone="no"?>
<!DOCTYPE svg PUBLIC "-//W3C//DTD SVG 20010904//EN"
 "http://www.w3.org/TR/2001/REC-SVG-20010904/DTD/svg10.dtd">
<svg version="1.0" xmlns="http://www.w3.org/2000/svg"
 width="16.000000pt" height="16.000000pt" viewBox="0 0 16.000000 16.000000"
 preserveAspectRatio="xMidYMid meet">
<metadata>
Created by potrace 1.11, written by Peter Selinger 2001-2013
</metadata>
<g transform="translate(0.000000,16.000000) scale(0.017391,-0.017391)"
fill="#000000" stroke="none">
<path d="M110 831 c0 -70 3 -90 15 -95 8 -3 15 -15 15 -27 0 -13 18 -39 42
-62 l42 -40 -37 -33 c-20 -19 -37 -40 -37 -48 0 -7 -9 -25 -20 -39 -17 -21
-20 -40 -20 -124 0 -87 2 -100 20 -111 14 -8 20 -23 20 -47 0 -23 -7 -41 -20
-52 -30 -26 -27 -95 5 -128 25 -24 31 -25 142 -25 l116 0 33 37 34 38 34 -38
33 -37 116 0 c111 0 117 1 142 25 37 37 33 74 -10 104 -37 25 -45 48 -20 57 8
4 15 15 15 25 0 10 9 28 20 39 17 17 20 33 20 116 0 81 -3 100 -20 121 -11 14
-20 32 -20 39 0 8 -17 29 -37 48 l-37 33 42 40 c24 23 42 49 42 62 0 12 7 24
15 27 12 5 15 25 15 95 l0 89 -49 0 c-48 0 -49 -1 -137 -90 l-88 -90 -76 0
-76 0 -88 90 c-88 89 -89 90 -137 90 l-49 0 0 -89z m147 -11 c24 -30 53 -67
65 -82 32 -41 38 -51 38 -74 0 -11 7 -29 15 -40 15 -19 15 -19 34 4 13 14 30
22 51 22 21 0 38 -8 51 -22 19 -23 19 -23 34 -4 8 11 15 29 15 40 0 23 6 33
38 74 12 15 41 52 65 82 66 84 107 79 107 -14 0 -43 -4 -56 -25 -74 -14 -12
-25 -29 -25 -37 0 -8 -25 -39 -55 -70 -30 -30 -55 -59 -55 -64 0 -5 -15 -18
-34 -29 -38 -23 -54 -68 -36 -101 15 -29 32 -26 52 9 9 17 21 30 27 30 5 0 17
-20 27 -45 16 -44 16 -45 -7 -81 -25 -37 -84 -74 -119 -74 -28 0 -25 15 10 51
45 47 21 66 -39 32 -30 -17 -32 -17 -62 0 -60 34 -84 15 -39 -32 35 -36 38
-51 10 -51 -35 0 -94 37 -119 74 -23 36 -23 37 -7 81 10 25 22 45 27 45 6 0
18 -13 27 -30 20 -35 37 -38 52 -9 18 33 2 78 -36 101 -19 11 -34 24 -34 29 0
5 -25 34 -55 64 -30 31 -55 62 -55 70 0 8 -11 25 -25 37 -21 18 -25 31 -25 73
0 93 41 99 107 15z m33 -300 c12 -22 6 -40 -14 -40 -23 0 -58 -48 -62 -87 -5
-36 -1 -42 66 -110 72 -72 72 -72 116 -66 24 3 44 10 44 14 0 5 9 9 20 9 11 0
20 -4 20 -9 0 -4 20 -11 44 -14 44 -6 44 -6 116 66 67 68 71 74 66 110 -4 39
-39 87 -62 87 -20 0 -26 18 -14 40 9 16 19 20 43 18 28 -3 36 -11 64 -66 36
-70 42 -121 18 -162 -8 -14 -19 -37 -26 -52 -6 -16 -18 -28 -27 -28 -22 0 -78
-53 -87 -81 -5 -16 0 -28 19 -46 43 -39 31 -57 -38 -61 -32 -2 -62 1 -67 5 -4
4 -9 24 -11 43 -2 30 0 35 19 38 28 4 45 25 37 46 -8 22 -41 20 -61 -4 -11
-13 -30 -20 -53 -20 -23 0 -42 7 -53 20 -20 24 -53 26 -61 4 -8 -21 9 -42 37
-46 19 -3 21 -8 19 -38 -2 -19 -7 -39 -11 -43 -5 -4 -35 -7 -67 -5 -69 4 -79
19 -40 61 22 23 24 31 15 57 -8 21 -17 30 -33 30 -13 0 -32 13 -47 33 -86 114
-90 160 -23 275 20 34 30 42 54 42 19 0 33 -7 40 -20z m-81 -432 c12 -33 2
-50 -28 -46 -32 4 -41 36 -15 55 25 18 33 16 43 -9z m545 9 c26 -19 17 -51
-17 -55 -24 -3 -27 0 -27 26 0 43 13 52 44 29z"/>
</g>
</svg>
